<svg width="60" height="60" viewBox="0 0 60 60" fill="none" xmlns="http://www.w3.org/2000/svg">
<g clip-path="url(#clip0)">
<path d="M2.12222 8.90625H7.87029L14.3838 32.0059V37.679C18.4144 39.1351 21.3243 43.0009 21.3243 47.5781C21.3243 48.8168 21.074 49.9887 20.6849 51.0938H42.9014C42.5123 49.9887 42.2616 48.8168 42.2616 47.5781C42.2616 43.049 45.1087 39.2111 49.0733 37.7197C48.7525 35.359 46.9695 33.4488 44.571 33.1792L17.4677 30.1405L10.8476 6.66595C10.6338 5.91064 9.9529 5.39062 9.17841 5.39062H2.12222C1.16338 5.39062 0.387085 6.17706 0.387085 7.14844C0.387085 8.11981 1.16338 8.90625 2.12222 8.90625ZM26.5297 40.5469H37.0562C38.015 40.5469 38.7913 41.3333 38.7913 42.3047C38.7913 43.2761 38.015 44.0625 37.0562 44.0625H26.5297C25.5709 44.0625 24.7946 43.2761 24.7946 42.3047C24.7946 41.3333 25.5709 40.5469 26.5297 40.5469Z" fill="#003F3F"/>
<path d="M10.9135 40.5469C7.08044 40.5469 3.97302 43.6949 3.97302 47.5781C3.97302 51.4613 7.08044 54.6094 10.9135 54.6094C14.7466 54.6094 17.8541 51.4613 17.8541 47.5781C17.8541 43.6949 14.7466 40.5469 10.9135 40.5469ZM10.9135 49.3359C9.95516 49.3359 9.17841 48.549 9.17841 47.5781C9.17841 46.6072 9.95516 45.8203 10.9135 45.8203C11.8719 45.8203 12.6487 46.6072 12.6487 47.5781C12.6487 48.549 11.8719 49.3359 10.9135 49.3359Z" fill="#003F3F"/>
<path d="M27.1022 21.0255C25.6386 20.8658 24.1575 21.3414 23.0563 22.3407C21.9565 23.3377 21.3243 24.7714 21.3243 26.2678V27.0373L42.2616 29.3825V27.0488C42.2616 24.359 40.2707 22.1068 37.5681 21.8014L27.1022 21.0255Z" fill="#003F3F"/>
<path d="M52.6723 40.5469C48.8392 40.5469 45.7318 43.6949 45.7318 47.5781C45.7318 51.4613 48.8392 54.6094 52.6723 54.6094C56.5054 54.6094 59.6129 51.4613 59.6129 47.5781C59.6129 43.6949 56.5054 40.5469 52.6723 40.5469ZM52.6723 49.3359C51.7139 49.3359 50.9372 48.549 50.9372 47.5781C50.9372 46.6072 51.7139 45.8203 52.6723 45.8203C53.6307 45.8203 54.4075 46.6072 54.4075 47.5781C54.4075 48.549 53.6307 49.3359 52.6723 49.3359Z" fill="#003F3F"/>
</g>
<defs>
<clipPath id="clip0">
<rect width="59.2258" height="60" fill="white" transform="translate(0.387085)"/>
</clipPath>
</defs>
</svg>
