<svg width="54" height="46" viewBox="0 0 54 46" fill="none" xmlns="http://www.w3.org/2000/svg">
<g clip-path="url(#clip0)">
<path d="M17.1343 29.6117C13.251 27.0553 10.7593 22.9125 10.8774 18.3992C10.8831 15.6621 12.4104 12.2046 15.4262 8.0867C11.8111 6.55965 8.20155 5.39964 6.15458 4.7843C4.72988 9.91691 2.66596 20.1415 5.38241 24.3818C7.65899 28.1821 12.4901 30.1797 17.1343 29.6117Z" fill="#2F1580"/>
<path d="M14.289 18.4473C14.0979 24.5836 20.0551 29.6223 26.9689 29.5116C33.9008 29.6352 39.8722 24.6054 39.6852 18.4473C39.7296 13.0187 31.1154 3.90115 26.9871 0C22.8631 3.89712 14.2424 13.0199 14.289 18.4473Z" fill="#2F1580"/>
<path d="M47.8196 4.7843C45.7726 5.39964 42.1631 6.55965 38.548 8.0867C41.5638 12.2046 43.0911 15.6621 43.0968 18.3992C43.2048 22.947 40.7314 27.0335 36.8399 29.6126C41.4837 30.1796 46.3171 28.1821 48.5918 24.3818C51.3082 20.1417 49.2443 9.91671 47.8196 4.7843Z" fill="#2F1580"/>
<path d="M15.5718 32.6491C14.1742 32.6491 12.7868 32.4793 11.4528 32.1486L5.50637 36.7955C7.97411 37.877 12.3967 39.3805 16.3235 38.4334C19.9729 37.6253 23.2345 35.1972 24.8287 32.3488C23.6323 32.2183 22.4758 31.9729 21.375 31.6255C19.4963 32.3174 17.5232 32.6491 15.5718 32.6491Z" fill="#2F1580"/>
<path d="M38.4024 32.6491C36.4498 32.6491 34.4779 32.3174 32.6004 31.6255C31.5007 31.9719 30.343 32.2173 29.1444 32.3478C30.7424 35.1974 33.9981 37.6242 37.6507 38.4333C41.5957 39.3844 46.0092 37.8809 48.4712 36.7984L42.5214 32.1486C41.1874 32.4793 39.8 32.6491 38.4024 32.6491Z" fill="#2F1580"/>
<path d="M25.2813 36.974V45.9999H28.6929V36.974C28.0015 36.3077 27.4397 35.6433 26.9871 35.0309C26.5345 35.6433 25.9727 36.3077 25.2813 36.974Z" fill="#2F1580"/>
</g>
<defs>
<clipPath id="clip0">
<rect width="53.3032" height="46" fill="white" transform="translate(0.33548)"/>
</clipPath>
</defs>
</svg>
