<svg width="48" height="51" viewBox="0 0 48 51" fill="none" xmlns="http://www.w3.org/2000/svg">
<g clip-path="url(#clip0)">
<path d="M23.6773 18.7256C24.123 18.9137 24.5603 18.4532 24.4125 17.9632C23.3985 14.5995 19.7268 13.3447 16.3136 16.3289C14.5182 17.8989 13.8435 18.2325 13.8265 18.2409C15.0101 19.5147 16.3623 23.7891 19.3133 24.2619C22.5641 24.8962 25.4412 21.4537 23.0873 19.8784C21.5392 18.8425 19.7166 18.2408 17.7628 18.2408C19.8111 17.7438 21.8558 17.9569 23.6773 18.7256Z" fill="#003F3F"/>
<path d="M38.3973 16.3287C32.5055 11.1773 28.748 19.3011 31.0836 18.4958C32.7424 17.9239 34.5559 17.7993 36.375 18.2406C33.2929 18.2406 30.4518 19.761 28.5576 22.2356C28.7132 18.3467 28.9485 15.9124 29.2213 14.1016C30.7957 14.0433 32.894 12.6749 34.0463 10.2803C36.0329 6.45343 35.1117 2.52963 34.8152 0.0537109C33.2629 1.68078 26.482 -0.225715 23.7939 4.7325C22.6065 6.92274 22.9516 9.58798 24.2007 11.5384C24.5961 12.1558 25.5416 11.8596 25.5686 11.1103C25.6859 7.85067 27.193 5.38795 30.0027 4.02392C28.7419 5.78228 27.9141 7.75089 27.4865 9.7856C26.8217 12.9552 26.1274 15.0344 25.8724 25.1368C25.8465 26.1614 26.6176 27.0094 27.5698 26.9966C28.259 26.9872 28.8494 26.5165 29.1145 25.8315C29.5177 24.7898 30.1738 23.7117 31.2416 22.724C32.2563 23.9312 33.8004 24.5736 35.398 24.2617C38.3364 23.791 39.7078 19.5073 40.8847 18.2405C40.8675 18.2323 40.1927 17.8987 38.3973 16.3287Z" fill="#003F3F"/>
<path d="M47.0584 28.9162C45.2165 27.5711 43.2119 28.5296 42.2912 29.1018L30.738 38.2036L23.9733 38.2052L22.2821 36.3848H28.4946C30.363 36.3848 32.4556 35.0749 32.4556 32.7433C32.4556 30.268 30.363 29.1018 28.4946 29.1018H26.1665C24.4371 29.1018 22.416 29.2678 20.991 28.4467C19.6371 27.7051 18.078 27.2831 16.4138 27.2831C13.6192 27.2831 11.1181 28.4823 9.40419 30.3734L0.296783 40.024L10.4438 50.9462L13.8262 45.4851H29.8095C31.5141 45.4851 33.1595 44.812 34.4338 43.5935L47.1741 31.4113C47.8824 30.7341 47.8424 29.4889 47.0584 28.9162Z" fill="#003F3F"/>
</g>
<defs>
<clipPath id="clip0">
<rect width="47.3806" height="51" fill="white" transform="translate(0.296783)"/>
</clipPath>
</defs>
</svg>

