<svg width="52" height="53" viewBox="0 0 52 53" fill="none" xmlns="http://www.w3.org/2000/svg">
<g clip-path="url(#clip0)">
<path d="M46.0573 11.8762C44.4068 13.5805 41.7351 13.5807 40.0843 11.8762C38.4375 10.1758 38.4375 7.4091 40.0843 5.70874L41.6157 4.12743L47.5888 10.295L46.0573 11.8762ZM51.0846 9.06884L42.7867 0.500825C42.14 -0.166942 41.0914 -0.166942 40.4447 0.500825L37.7426 3.29093C35.2071 5.909 34.8614 9.94296 36.7025 12.95L20.5165 29.6629L14.2678 23.2107C13.6211 22.5429 12.5725 22.5429 11.9258 23.2107L5.74427 29.5934C1.56841 33.9052 -0.354445 40.0721 0.601809 46.0894L1.31797 50.601C1.43284 51.3255 1.98238 51.8929 2.68404 52.0115C7.34578 52.8016 8.13635 53 10.0133 53C14.8504 53 19.5603 51.0241 23.0293 47.4411L29.2118 41.0584C29.8587 40.3905 29.8587 39.308 29.2118 38.6402L26.3714 35.7073C25.7248 35.0396 24.6763 35.0396 24.0297 35.7073L19.2489 40.6438C18.925 40.9782 18.5017 41.1449 18.0774 41.1449C16.6169 41.1449 15.8602 39.3057 16.9069 38.2266C25.7728 29.0735 30.178 24.5228 39.0436 15.3693C41.9099 17.2463 45.8201 16.9572 48.3991 14.2943L51.1013 11.5042C51.7169 10.8685 51.7861 9.79303 51.0846 9.06884Z" fill="#003F3F"/>
</g>
<defs>
<clipPath id="clip0">
<rect width="51.329" height="53" fill="white" transform="translate(0.309692)"/>
</clipPath>
</defs>
</svg>
