<svg width="49" height="48" viewBox="0 0 49 48" fill="none" xmlns="http://www.w3.org/2000/svg">
<g clip-path="url(#clip0)">
<path d="M29.639 20.4538C30.0263 19.7239 31.5529 18.2528 31.5529 15.4688C31.5529 9.79547 26.2169 8.72878 25.9332 8.52947C25.9135 8.32331 25.8628 7.79288 25.8475 7.63116C25.4295 3.28059 21.79 0 17.3826 0C13.0223 0 9.39392 3.28219 8.94274 7.63416L8.85006 8.52675C8.56666 8.72484 3.11792 9.77334 3.11792 15.4688C3.11792 18.2495 4.64547 19.7259 5.03175 20.4538C4.75978 20.7368 0.283875 22.9976 0.283875 28.2188C0.283875 32.8715 4.19212 36.5625 8.88048 36.5625H25.8848C30.5731 36.5625 34.3869 32.7777 34.3869 28.125C34.3869 22.873 29.962 20.7901 29.639 20.4538Z" fill="#003F3F"/>
<path d="M43.9038 20.4538C44.2911 19.7239 45.8176 18.2528 45.8176 15.4688C45.8176 9.79547 40.3872 8.72878 40.1035 8.52947C40.0838 8.32331 40.0331 7.79288 40.0177 7.63116C39.5998 3.28059 35.9603 0 31.5529 0C29.6394 0 27.888 0.659156 26.463 1.73653C27.5038 3.12853 28.2585 4.75266 28.5625 6.55884C33.601 8.93325 34.3869 13.0764 34.3869 15.4688C34.3869 17.2733 33.9151 18.7028 33.3864 19.7713C35.9603 22.0784 37.221 24.8607 37.221 28.125C37.221 31.5009 35.6837 34.4988 33.3032 36.5625H40.055C44.7434 36.5625 48.6516 32.7777 48.6516 28.125C48.6516 22.873 44.2268 20.7901 43.9038 20.4538Z" fill="#003F3F"/>
<path d="M37.221 45.1875V39.375H31.5529V45.1875H20.2167V39.375H14.5486V45.1875H8.88049V48H42.8891V45.1875H37.221Z" fill="#003F3F"/>
</g>
<defs>
<clipPath id="clip0">
<rect width="48.3677" height="48" fill="white" transform="translate(0.283875)"/>
</clipPath>
</defs>
</svg>


