<svg width="45" height="46" viewBox="0 0 45 46" fill="none" xmlns="http://www.w3.org/2000/svg">
<g clip-path="url(#clip0)">
<path d="M41.0388 6.25789C39.2874 3.17445 37.5639 0.669516 37.4913 0.564309C37.2471 0.210145 36.8527 0 36.4325 0C36.0122 0 35.6178 0.210145 35.3735 0.564309C35.301 0.669426 33.5775 3.17445 31.826 6.25789C31.5751 6.69965 31.3379 7.12811 31.1132 7.54472C31.6765 8.48709 32.2533 9.47312 32.828 10.4849C35.8431 15.793 37.933 20.2315 39.1286 23.8799C42.3693 22.7194 44.7032 19.5281 44.7032 15.7826C44.7032 13.7144 43.5046 10.5988 41.0388 6.25789Z" fill="#003F3F"/>
<path d="M23.5525 0.564309C23.3082 0.210145 22.9138 0 22.4936 0C22.0733 0 21.6789 0.210145 21.4346 0.564309C21.3995 0.61534 17.8762 5.73589 14.4025 11.8514C9.65863 20.2028 7.25339 26.3821 7.25339 30.2174C7.2533 38.92 14.0901 46 22.4936 46C30.8971 46 37.7338 38.92 37.7338 30.2174C37.7338 26.3821 35.3285 20.2028 30.5847 11.8514C27.1109 5.73589 23.5876 0.61534 23.5525 0.564309Z" fill="#003F3F"/>
<path d="M11.7852 11.1481C10.6019 9.21835 9.66659 7.85865 9.61358 7.78184C9.36928 7.42767 8.97488 7.21753 8.55463 7.21753C8.13439 7.21753 7.73999 7.42767 7.49568 7.78184C7.42316 7.88695 5.69965 10.392 3.94821 13.4754C1.4825 17.8163 0.283875 20.9318 0.283875 23C0.283875 26.2632 2.05544 29.1058 4.65476 30.5513C4.61719 28.3671 4.88353 23.4483 11.7852 11.1481Z" fill="#003F3F"/>
</g>
<defs>
<clipPath id="clip0">
<rect width="44.4193" height="46" fill="white" transform="translate(0.283875)"/>
</clipPath>
</defs>
</svg>
